<mxfile host="app.diagrams.net" agent="Mozilla/5.0 (Windows NT 10.0; Win64; x64) AppleWebKit/537.36 (KHTML, like Gecko) Chrome/134.0.0.0 Safari/537.36" version="26.0.5">
  <diagram name="Page-1" id="RZ0MqGjC5Jo0D7jDxSu8">
    <mxGraphModel dx="993" dy="558" grid="1" gridSize="10" guides="1" tooltips="1" connect="1" arrows="1" fold="1" page="1" pageScale="1" pageWidth="827" pageHeight="1169" math="0" shadow="0">
      <root>
        <mxCell id="0" />
        <mxCell id="1" parent="0" />
        <mxCell id="WcH3Gf7FJy_f3XIzpmC5-18" value="" style="edgeStyle=orthogonalEdgeStyle;rounded=0;orthogonalLoop=1;jettySize=auto;html=1;" edge="1" parent="1" source="WcH3Gf7FJy_f3XIzpmC5-1" target="WcH3Gf7FJy_f3XIzpmC5-4">
          <mxGeometry relative="1" as="geometry" />
        </mxCell>
        <mxCell id="WcH3Gf7FJy_f3XIzpmC5-19" value="filehandling" style="edgeLabel;html=1;align=center;verticalAlign=middle;resizable=0;points=[];" vertex="1" connectable="0" parent="WcH3Gf7FJy_f3XIzpmC5-18">
          <mxGeometry x="-0.1833" y="2" relative="1" as="geometry">
            <mxPoint as="offset" />
          </mxGeometry>
        </mxCell>
        <mxCell id="WcH3Gf7FJy_f3XIzpmC5-1" value="Intelligent React components&lt;div&gt;(IRC)&lt;/div&gt;" style="ellipse;whiteSpace=wrap;html=1;aspect=fixed;" vertex="1" parent="1">
          <mxGeometry x="344" y="230" width="140" height="140" as="geometry" />
        </mxCell>
        <mxCell id="WcH3Gf7FJy_f3XIzpmC5-7" style="edgeStyle=orthogonalEdgeStyle;rounded=0;orthogonalLoop=1;jettySize=auto;html=1;exitX=1;exitY=0.5;exitDx=0;exitDy=0;entryX=0;entryY=0.5;entryDx=0;entryDy=0;" edge="1" parent="1" source="WcH3Gf7FJy_f3XIzpmC5-2" target="WcH3Gf7FJy_f3XIzpmC5-1">
          <mxGeometry relative="1" as="geometry" />
        </mxCell>
        <mxCell id="WcH3Gf7FJy_f3XIzpmC5-8" value="Natural language prompt" style="edgeLabel;html=1;align=center;verticalAlign=middle;resizable=0;points=[];" vertex="1" connectable="0" parent="WcH3Gf7FJy_f3XIzpmC5-7">
          <mxGeometry x="-0.1503" y="-1" relative="1" as="geometry">
            <mxPoint y="-1" as="offset" />
          </mxGeometry>
        </mxCell>
        <mxCell id="WcH3Gf7FJy_f3XIzpmC5-2" value="React Developer" style="rounded=0;whiteSpace=wrap;html=1;" vertex="1" parent="1">
          <mxGeometry x="70" y="140" width="120" height="60" as="geometry" />
        </mxCell>
        <mxCell id="WcH3Gf7FJy_f3XIzpmC5-3" value="NPM package registary" style="rounded=0;whiteSpace=wrap;html=1;" vertex="1" parent="1">
          <mxGeometry x="70" y="410" width="120" height="60" as="geometry" />
        </mxCell>
        <mxCell id="WcH3Gf7FJy_f3XIzpmC5-4" value="Local server" style="rounded=0;whiteSpace=wrap;html=1;" vertex="1" parent="1">
          <mxGeometry x="354" y="480" width="120" height="60" as="geometry" />
        </mxCell>
        <mxCell id="WcH3Gf7FJy_f3XIzpmC5-16" style="edgeStyle=orthogonalEdgeStyle;rounded=0;orthogonalLoop=1;jettySize=auto;html=1;exitX=0.5;exitY=1;exitDx=0;exitDy=0;entryX=0.5;entryY=0;entryDx=0;entryDy=0;" edge="1" parent="1" source="WcH3Gf7FJy_f3XIzpmC5-5" target="WcH3Gf7FJy_f3XIzpmC5-1">
          <mxGeometry relative="1" as="geometry" />
        </mxCell>
        <mxCell id="WcH3Gf7FJy_f3XIzpmC5-17" value="components" style="edgeLabel;html=1;align=center;verticalAlign=middle;resizable=0;points=[];" vertex="1" connectable="0" parent="WcH3Gf7FJy_f3XIzpmC5-16">
          <mxGeometry x="-0.0924" y="2" relative="1" as="geometry">
            <mxPoint as="offset" />
          </mxGeometry>
        </mxCell>
        <mxCell id="WcH3Gf7FJy_f3XIzpmC5-5" value="React" style="rounded=0;whiteSpace=wrap;html=1;" vertex="1" parent="1">
          <mxGeometry x="354" y="60" width="120" height="60" as="geometry" />
        </mxCell>
        <mxCell id="WcH3Gf7FJy_f3XIzpmC5-6" value="Google Gemini API" style="rounded=0;whiteSpace=wrap;html=1;" vertex="1" parent="1">
          <mxGeometry x="650" y="270" width="120" height="60" as="geometry" />
        </mxCell>
        <mxCell id="WcH3Gf7FJy_f3XIzpmC5-11" value="" style="endArrow=classic;startArrow=classic;html=1;rounded=0;entryX=0;entryY=0.5;entryDx=0;entryDy=0;exitX=1;exitY=0.5;exitDx=0;exitDy=0;" edge="1" parent="1" source="WcH3Gf7FJy_f3XIzpmC5-3" target="WcH3Gf7FJy_f3XIzpmC5-1">
          <mxGeometry width="50" height="50" relative="1" as="geometry">
            <mxPoint x="270" y="440" as="sourcePoint" />
            <mxPoint x="320" y="390" as="targetPoint" />
            <Array as="points">
              <mxPoint x="270" y="440" />
              <mxPoint x="270" y="300" />
            </Array>
          </mxGeometry>
        </mxCell>
        <mxCell id="WcH3Gf7FJy_f3XIzpmC5-12" value="publication/installtion" style="edgeLabel;html=1;align=center;verticalAlign=middle;resizable=0;points=[];" vertex="1" connectable="0" parent="WcH3Gf7FJy_f3XIzpmC5-11">
          <mxGeometry x="-0.1079" relative="1" as="geometry">
            <mxPoint as="offset" />
          </mxGeometry>
        </mxCell>
        <mxCell id="WcH3Gf7FJy_f3XIzpmC5-13" value="" style="endArrow=classic;startArrow=classic;html=1;rounded=0;entryX=0;entryY=0.5;entryDx=0;entryDy=0;exitX=1;exitY=0.5;exitDx=0;exitDy=0;" edge="1" parent="1" source="WcH3Gf7FJy_f3XIzpmC5-1" target="WcH3Gf7FJy_f3XIzpmC5-6">
          <mxGeometry width="50" height="50" relative="1" as="geometry">
            <mxPoint x="480" y="300" as="sourcePoint" />
            <mxPoint x="450" y="250" as="targetPoint" />
          </mxGeometry>
        </mxCell>
        <mxCell id="WcH3Gf7FJy_f3XIzpmC5-14" value="request/response" style="edgeLabel;html=1;align=center;verticalAlign=middle;resizable=0;points=[];" vertex="1" connectable="0" parent="WcH3Gf7FJy_f3XIzpmC5-13">
          <mxGeometry x="-0.1155" relative="1" as="geometry">
            <mxPoint as="offset" />
          </mxGeometry>
        </mxCell>
      </root>
    </mxGraphModel>
  </diagram>
</mxfile>
